<?xml version="1.0" encoding="utf-8"?>
<svg version="1.1" id="1" xmlns="http://www.w3.org/2000/svg" xmlns:xlink="http://www.w3.org/1999/xlink" x="0px" y="0px"
	 viewBox="0 0 799.77 640.073" enable-background="new 0 0 799.77 640.073" xml:space="preserve">
<g>
	<g>
		<path d="M0,260.077c2.302-5.538,4.27-11.535,10.356-14.02c3.934-1.606,8.253-2.421,12.477-3.136
			c35.598-6.03,65.243-23.705,92.699-46.23c9.4-7.712,14.218-16.088,15.879-28.542c5.274-39.527,22.587-73.849,49.514-103.251
			C212.334,30.601,251.198,9.59,296.999,2.614c56.914-8.668,108.974,4.117,154.454,39.917
			c42.417,33.388,67.934,77.02,75.334,130.715c6.392,46.375-3.004,89.655-26.691,129.928c-0.567,0.964-0.944,2.039-1.697,3.693
			c5.337,0.46,10.205,1.187,15.081,1.251c47.135,0.623,93.809-2.864,139.173-16.78c19.779-6.067,38.856-13.88,56.47-24.928
			c8.388-5.261,17.16-9.26,27.211-10.518c29.931-3.745,59.641,18.835,62.266,48.837c1.462,16.704,1.302,33.615,0.865,50.407
			c-0.745,28.64-3.612,57.104-9.749,85.161c-9.539,43.613-25.558,84.392-53.488,119.724c-32.818,41.515-75.89,66.26-127.695,75.566
			c-14.988,2.692-30.402,4.122-45.629,4.188c-83.985,0.367-167.974,0.44-251.958-0.031c-40.058-0.225-75.576-14.392-106.565-39.469
			c-32.591-26.374-53.938-60.068-62.213-101.339c-11.531-57.511,1.768-108.872,39.696-153.743c0.752-0.89,1.591-1.71,2.318-2.619
			c2.258-2.826,0.89-4.251-2.04-4.797c-1.286-0.24-2.658-0.041-3.99-0.013c-42.454,0.893-83.093-6.813-121.341-25.72
			c-15.291-7.559-29.474-16.855-42.536-27.828C8.273,279.172,2.668,273.767,0,266.077C0,264.077,0,262.077,0,260.077z
			 M440.828,601.771c35.992,0,71.986,0.238,107.975-0.115c14.796-0.145,29.697-0.668,44.347-2.579
			c39.026-5.091,73.143-20.926,100.784-49.391c25.917-26.689,41.791-59.06,52.188-94.382c9.948-33.796,13.893-68.476,14.814-103.558
			c0.332-12.656,0.316-25.33,0.079-37.989c-0.302-16.152-14.78-24.213-28.754-16.213c-4.192,2.4-8.274,4.998-12.525,7.285
			c-51.455,27.689-107.193,38.111-164.841,41.139c-32.046,1.683-63.933-0.04-95.808-3.012c-8.296-0.774-14.682-5.951-17.007-13.939
			c-2.439-8.379,1.039-14.774,6.357-20.886c34.754-39.941,48.723-86.102,38.526-138.219
			C469.332,79.806,383.571,23.164,294.791,42.027c-74.056,15.734-127.842,81.514-127.539,157.166
			c0.198,49.496,18.763,91.259,56.817,123.398c12.101,10.22,12.015,24.412,0.269,34.776c-32.129,28.351-48.707,64.379-47.36,107.417
			c1.648,52.661,26.214,92.306,71.511,118.924c22.711,13.346,47.756,18.085,73.864,18.067
			C361.846,601.748,401.337,601.768,440.828,601.771z M65.558,272.152c27.066,16.053,56.147,24.135,88.627,26.238
			c-11.613-20.762-18.665-41.705-23.125-64.545C110.337,249.932,88.853,262.342,65.558,272.152z"/>
		<path d="M552.596,537.276c-9.835,0.194-17.245-5.646-19.579-14.287c-2.245-8.31,1.37-17.294,8.828-21.429
			c2.309-1.28,4.842-2.232,7.366-3.039c37.013-11.838,66.435-33.807,88.338-65.906c5.259-7.707,12.894-10.756,21.119-8.778
			c8.091,1.946,14.181,8.262,14.54,16.93c0.181,4.36-0.997,9.544-3.397,13.125c-27.136,40.483-64.101,67.933-110.779,82.151
			C556.511,536.811,553.827,537.047,552.596,537.276z"/>
		<path d="M299.106,162.022c0.004,7.986,0.135,15.975-0.027,23.958c-0.229,11.229-8.34,19.598-18.921,19.788
			c-10.667,0.191-19.573-8.3-19.768-19.596c-0.281-16.3-0.291-32.613,0.007-48.913c0.211-11.532,8.853-19.655,19.81-19.411
			c10.917,0.244,18.61,8.165,18.86,19.717C299.244,145.713,299.102,153.869,299.106,162.022z"/>
		<path d="M465.243,505.966c3.327-0.005,6.684-0.295,9.974,0.049c9.884,1.034,17.097,8.93,17.405,18.733
			c0.284,9.038-6.363,17.969-15.713,19.126c-7.831,0.969-15.972,0.969-23.803,0.001c-9.35-1.156-16.019-10.102-15.726-19.113
			c0.32-9.815,7.493-17.688,17.391-18.733C458.225,505.665,461.75,505.971,465.243,505.966z"/>
	</g>
</g>
<g>
</g>
<g>
</g>
<g>
</g>
<g>
</g>
<g>
</g>
<g>
</g>
</svg>
